<?xml version="1.0"?>
<svg xmlns="http://www.w3.org/2000/svg" xmlns:xlink="http://www.w3.org/1999/xlink" version="1.1" id="Capa_1" x="0px" y="0px" viewBox="0 0 16 16" style="enable-background:new 0 0 16 16;" xml:space="preserve" width="512px" height="512px"><g><g>
	<path d="M13,7c0-2.209-1.791-4-4-4C7.502,3,6.195,3.824,5.511,5.043C5.345,5.015,5.174,5,5,5   C3.646,5,2.5,5.897,2.128,7.131C0.896,7.508,0,8.651,0,10c0,1.657,1.337,3,3.01,3h9.98c1.662,0,3.01-1.347,3.01-3   S14.668,7.005,13,7z M11,10H9v2H7v-2H5V8h2V6h2v2h2V10z" data-original="#030104" class="active-path" data-old_color="#030104" fill="#9E9595"/>
</g></g> </svg>
