<?xml version="1.0"?>
<svg xmlns="http://www.w3.org/2000/svg" xmlns:xlink="http://www.w3.org/1999/xlink" version="1.1" id="Capa_1" x="0px" y="0px" viewBox="0 0 479.804 479.804" style="enable-background:new 0 0 479.804 479.804;" xml:space="preserve" width="512px" height="512px"><g><g>
	<g>
		<path d="M477.362,234.871c-3.1-2.995-8.016-2.995-11.116,0l-2.344,2.344L333.558,106.871c-3.124-3.123-8.188-3.123-11.312,0    l-18.344,18.344l-74.344-74.344c-3.124-3.123-8.188-3.123-11.312,0l-26.344,26.344l-35.312,35.312l-20.688,20.688L56.87,54.183    c-9.372-9.369-24.564-9.369-33.936,0L2.246,74.871c-3.069,3.178-2.981,8.243,0.197,11.312c3.1,2.994,8.015,2.994,11.115,0    l20.688-20.68c3.124-3.123,8.188-3.123,11.312,0l84.688,84.68l80,80l85.456,85.456c-24.856,31.038-19.845,76.35,11.194,101.206    c31.038,24.856,76.35,19.845,101.206-11.194c21.067-26.306,21.067-63.706,0-90.012l61.456-61.456l8-8    C480.627,243.005,480.54,237.94,477.362,234.871z M191.902,99.839l12.688,12.688l-12.688,12.688l-12.688-12.688L191.902,99.839z     M147.214,144.527l20.688-20.688l24,24l35.312-35.312l-24-24l20.688-20.688l68.688,68.688l-4.688,4.688l-43.312,43.312    l-28.688,28.688L147.214,144.527z M316.59,192.527l-20.688,20.688l-28.688-28.688l20.688-20.688L316.59,192.527z M351.902,416.527    c-30.928,0-56-25.072-56-56c0-30.928,25.072-56,56-56c30.928,0,56,25.072,56,56C407.866,391.44,382.815,416.492,351.902,416.527z     M396.79,304.327c-26.218-21.067-63.558-21.067-89.776,0l-79.8-79.8l28.688-28.688l40,40l43.312-43.312l-40-40l10.344-10.344    l18.344-18.344L452.59,248.527L396.79,304.327z" data-original="#000000" class="active-path" data-old_color="#041e42" fill="#041e42"/>
	</g>
</g><g>
	<g>
		<path d="M351.902,320.527c-22.091,0-40,17.909-40,40c0,22.091,17.909,40,40,40c22.091,0,40-17.909,40-40    C391.875,338.446,373.982,320.553,351.902,320.527z M351.902,384.527c-13.255,0-24-10.745-24-24s10.745-24,24-24s24,10.745,24,24    S365.156,384.527,351.902,384.527z" data-original="#000000" class="active-path" data-old_color="#041e42" fill="#041e42"/>
	</g>
</g></g> </svg>
